<mxfile host="app.diagrams.net" modified="2024-05-20T06:43:24.894Z" agent="Mozilla/5.0 (Windows NT 10.0; Win64; x64) AppleWebKit/537.36 (KHTML, like Gecko) Chrome/124.0.0.0 Safari/537.36" version="24.4.4" etag="svyiLDyAEPgeOvonpXEj" type="github">
  <diagram name="PÃ¡gina-1" id="J4KStZirxJ80GVOOFsrg">
    <mxGraphModel>
      <root>
        <mxCell id="0" />
        <mxCell id="1" parent="0" />
      </root>
    </mxGraphModel>
  </diagram>
</mxfile>
